<svg
  width="200"
  height="200"
  viewBox="0 0 200 200"
  xmlns="http://www.w3.org/2000/svg"
  fill="none"
>
  <!-- Background Gradient -->
  <defs>
    <linearGradient id="bgGradient" x1="0" y1="0" x2="1" y2="1">
      <stop offset="0%" stop-color="#007BFF"/>
      <stop offset="100%" stop-color="#00D4FF"/>
    </linearGradient>
  </defs>
  <circle cx="100" cy="100" r="90" fill="url(#bgGradient)"/>

  <!-- Chat Bubble with PDF Icon -->
  <rect x="40" y="55" width="90" height="55" rx="10" fill="white"/>
  <polygon points="50,110 40,125 40,110" fill="white"/>
  <text x="55" y="90" fill="#007BFF" font-size="16" font-weight="bold">PDF</text>

  <!-- AI Brain Icon -->
  <circle cx="140" cy="60" r="22" fill="white"/>
  <text x="132" y="65" fill="#007BFF" font-size="16" font-weight="bold">AI</text>

  <!-- Tweet Icon -->
  <path fill="white" d="M130 125c5 8 15 12 25 12-5 4-10 8-17 8 5 12-8 20-20 25-15 4-30-2-35-12 5 1 10 0 15-2-10-2-15-8-15-15 3 1 6 1 10 0-10-3-15-8-15-15 0-4 1-7 3-10 12 10 30 18 50 18-1-2-1-5-1-7 0-10 8-15 18-15 5 0 10 2 13 6 4-1 8-3 11-5-1 3-4 6-7 8 4 0 7-1 11-3-2 3-5 5-8 7z"/>
</svg>
